<?xml version="1.0" standalone="no"?><svg xmlns="http://www.w3.org/2000/svg" viewBox="0 0 1440 320"><path fill="#f77d25" fill-opacity="1" d="M0,96L15,101.3C30,107,60,117,90,133.3C120,149,150,171,180,176C210,181,240,171,270,170.7C300,171,330,181,360,165.3C390,149,420,107,450,96C480,85,510,107,540,133.3C570,160,600,192,630,197.3C660,203,690,181,720,186.7C750,192,780,224,810,234.7C840,245,870,235,900,202.7C930,171,960,117,990,112C1020,107,1050,149,1080,144C1110,139,1140,85,1170,96C1200,107,1230,181,1260,218.7C1290,256,1320,256,1350,250.7C1380,245,1410,235,1425,229.3L1440,224L1440,320L1425,320C1410,320,1380,320,1350,320C1320,320,1290,320,1260,320C1230,320,1200,320,1170,320C1140,320,1110,320,1080,320C1050,320,1020,320,990,320C960,320,930,320,900,320C870,320,840,320,810,320C780,320,750,320,720,320C690,320,660,320,630,320C600,320,570,320,540,320C510,320,480,320,450,320C420,320,390,320,360,320C330,320,300,320,270,320C240,320,210,320,180,320C150,320,120,320,90,320C60,320,30,320,15,320L0,320Z"></path></svg>